<svg xmlns="http://www.w3.org/2000/svg" width="17.65" height="23.505" viewBox="0 0 17.65 23.505">
  <g id="Group_43390" data-name="Group 43390" transform="translate(-1159.226 -578.748)">
    <path id="Path_80243" data-name="Path 80243" d="M1168.652,578.748c.2.031.406.064.609.092a8.83,8.83,0,0,1,7.388,6.725,8.828,8.828,0,0,1-.243,4.813,19.926,19.926,0,0,1-2.1,4.416,42.345,42.345,0,0,1-5.6,7.106.768.768,0,0,1-1.292,0,40.314,40.314,0,0,1-6.235-8.2,15.14,15.14,0,0,1-1.83-4.817,8.269,8.269,0,0,1,.223-3.721,8.849,8.849,0,0,1,7.759-6.383.759.759,0,0,0,.131-.035Zm-.586,21.712c.047-.061.075-.106.111-.144a42.933,42.933,0,0,0,4.773-6.132,17.931,17.931,0,0,0,2.168-4.634,7.084,7.084,0,0,0,.128-3.514,7.371,7.371,0,0,0-8.7-5.657,6.958,6.958,0,0,0-3.977,2.311,7.109,7.109,0,0,0-1.574,6.863,17.518,17.518,0,0,0,2.213,4.712,42.32,42.32,0,0,0,4.061,5.323C1167.521,599.874,1167.783,600.15,1168.066,600.46Z" transform="translate(0 0)" fill="#4cbb16"/>
    <path id="Path_80244" data-name="Path 80244" d="M1240.433,664.222a4.405,4.405,0,1,1,4.407-4.417A4.424,4.424,0,0,1,1240.433,664.222Zm-.012-7.342a2.937,2.937,0,1,0,2.948,2.925A2.948,2.948,0,0,0,1240.422,656.88Z" transform="translate(-72.373 -72.257)" fill="#4cbb16"/>
  </g>
</svg>
