<svg xmlns="http://www.w3.org/2000/svg" xmlns:xlink="http://www.w3.org/1999/xlink" width="311.591" height="40.428" viewBox="0 0 311.591 40.428">
  <defs>
    <clipPath id="clip-path">
      <rect id="Rectangle_24355" data-name="Rectangle 24355" width="311.591" height="40.428" fill="none"/>
    </clipPath>
  </defs>
  <g id="Group_49332" data-name="Group 49332" transform="translate(0 0)">
    <g id="Group_49331" data-name="Group 49331" transform="translate(0 0)" clip-path="url(#clip-path)">
      <path id="Path_90360" data-name="Path 90360" d="M57.23,3.97h4.05C61.928,15.854,57.967,25.6,48.19,32.6a30.127,30.127,0,0,1-33.606.894C3.87,26.635-.533,16.546.052,3.92H4.211s-.022.993-.032,1.453a29.135,29.135,0,0,0,1.4,10.741,26.118,26.118,0,0,0,15.64,16.15,25.019,25.019,0,0,0,17.137.6c9.833-3.176,15.945-9.914,18.316-19.99A25.916,25.916,0,0,0,57.23,6.9c0-.95,0-1.9,0-2.926" transform="translate(0 1.562)" fill="#2560b7"/>
      <path id="Path_90361" data-name="Path 90361" d="M5.488,3.952h3.6s-.081,1.463-.1,2.18a22.622,22.622,0,0,0,1.117,7.8A19.43,19.43,0,0,0,27.193,26.909c8.367.39,14.559-3.2,18.651-10.43a17.612,17.612,0,0,0,2.232-8.8c0-1.207,0-2.414,0-3.7H51.6c.7,8.776-1.873,16.227-8.928,21.783a22.883,22.883,0,0,1-25.854,1.61c-8.355-4.961-12.2-13.5-11.331-23.427" transform="translate(2.139 1.575)" fill="#2560b7"/>
      <path id="Path_90362" data-name="Path 90362" d="M24.48.13A8.976,8.976,0,0,1,33.4,9.11,8.909,8.909,0,1,1,24.48.13" transform="translate(6.21 0.052)" fill="#2560b7"/>
      <path id="Path_90363" data-name="Path 90363" d="M10.667,3.94h3.446c0,1.119-.046,2.219-.059,3.32A11.949,11.949,0,0,0,16.9,15.38a11.863,11.863,0,0,0,11.518,4.342,12,12,0,0,0,9.945-8.587,11.485,11.485,0,0,0,.565-3.952c-.022-1.045,0-2.091,0-3.2,1.193,0,2.387-.024,3.485-.024.7,5.805-.48,11.564-5.892,15.945A15.6,15.6,0,0,1,18.355,21.18c-6.532-4-8.439-10.083-7.688-17.24" transform="translate(4.19 1.57)" fill="#2560b7"/>
      <g id="Group_49334" data-name="Group 49334">
        <path id="Union_2" data-name="Union 2" d="M-4434.2-5.643a7.664,7.664,0,0,1-3.091-3.019,9.121,9.121,0,0,1-1.1-4.565,9.122,9.122,0,0,1,1.1-4.564,7.659,7.659,0,0,1,3.091-3.02,9.553,9.553,0,0,1,4.6-1.07,9.656,9.656,0,0,1,4.648,1.07,7.651,7.651,0,0,1,3.091,3.02,9.087,9.087,0,0,1,1.105,4.564,9.086,9.086,0,0,1-1.105,4.565,7.656,7.656,0,0,1-3.091,3.019,9.643,9.643,0,0,1-4.648,1.07A9.54,9.54,0,0,1-4434.2-5.643ZM-4432.9-20.1a6.38,6.38,0,0,0-2.2,2.734,10.094,10.094,0,0,0-.784,4.136,10.1,10.1,0,0,0,.784,4.137,6.387,6.387,0,0,0,2.2,2.734,5.65,5.65,0,0,0,3.292.974,5.688,5.688,0,0,0,3.329-.974,6.419,6.419,0,0,0,2.187-2.734,10.083,10.083,0,0,0,.785-4.137,10.078,10.078,0,0,0-.785-4.136,6.412,6.412,0,0,0-2.187-2.734,5.689,5.689,0,0,0-3.329-.975A5.651,5.651,0,0,0-4432.9-20.1Zm-21.661,14.454a7.668,7.668,0,0,1-3.09-3.019,9.111,9.111,0,0,1-1.1-4.565,9.112,9.112,0,0,1,1.1-4.564,7.663,7.663,0,0,1,3.09-3.02,9.56,9.56,0,0,1,4.6-1.07,9.65,9.65,0,0,1,4.647,1.07,7.641,7.641,0,0,1,3.091,3.02,9.083,9.083,0,0,1,1.107,4.564,9.081,9.081,0,0,1-1.107,4.565,7.646,7.646,0,0,1-3.091,3.019,9.637,9.637,0,0,1-4.647,1.07A9.547,9.547,0,0,1-4454.556-5.643Zm1.31-14.454a6.37,6.37,0,0,0-2.2,2.734,10.094,10.094,0,0,0-.785,4.136,10.1,10.1,0,0,0,.785,4.137,6.377,6.377,0,0,0,2.2,2.734,5.65,5.65,0,0,0,3.292.974,5.688,5.688,0,0,0,3.329-.974,6.415,6.415,0,0,0,2.187-2.734,10.1,10.1,0,0,0,.785-4.137,10.094,10.094,0,0,0-.785-4.136,6.408,6.408,0,0,0-2.187-2.734,5.689,5.689,0,0,0-3.329-.975A5.651,5.651,0,0,0-4453.246-20.1Zm-70.979,15.524-12.668-12.984.017,10.963h0a1.4,1.4,0,0,0,.428,1.023,1.4,1.4,0,0,0,1.021.427h.453v.238h-5.658v-.238h.451a1.4,1.4,0,0,0,1.022-.427,1.4,1.4,0,0,0,.429-1.023v-12.34a22.257,22.257,0,0,0-.238-2.972h.238L-4526.08-8.92V-19.862a1.493,1.493,0,0,0-.438-1.033,1.415,1.415,0,0,0-1.037-.416h-.45v-.238h5.658v.238h-.429a1.415,1.415,0,0,0-1.021.416,1.462,1.462,0,0,0-.451,1.033V-7.618c0,.54.019,1.044.059,1.511s.1.979.179,1.534ZM-4524.226-4.574ZM-4536.874-4.907Zm-50.427-.44a5.575,5.575,0,0,1-2.4-2.175,6.313,6.313,0,0,1-.831-3.28v-9.32a1.11,1.11,0,0,0-.369-.857,1.291,1.291,0,0,0-.891-.332h-.381v-.238h5.493v.238h-.38a1.289,1.289,0,0,0-.891.332,1.1,1.1,0,0,0-.37.857v9.033a6.933,6.933,0,0,0,.606,3,4.632,4.632,0,0,0,1.711,1.985,4.707,4.707,0,0,0,2.579.7,5.293,5.293,0,0,0,2.7-.666,4.51,4.51,0,0,0,1.783-1.877,6.059,6.059,0,0,0,.631-2.831v-9.342a1.1,1.1,0,0,0-.369-.857,1.3,1.3,0,0,0-.894-.332h-.378v-.238h4.586v.238h-.378a1.291,1.291,0,0,0-.894.332,1.1,1.1,0,0,0-.37.857v9.3a6.541,6.541,0,0,1-.794,3.282,5.539,5.539,0,0,1-2.283,2.186,7.359,7.359,0,0,1-3.483.785A8.362,8.362,0,0,1-4587.3-5.347Zm74.485.441h-3.968v-.238h.307a1.446,1.446,0,0,0,1.059-.44,1.531,1.531,0,0,0,.463-1.059V-20.763H-4519a1.772,1.772,0,0,0-1.25.51,1.7,1.7,0,0,0-.487,1.249v.356l-.238.024V-22a4.382,4.382,0,0,0,.725.19q.489.094,1.082.167a9.422,9.422,0,0,0,1.1.071h8.44a9.315,9.315,0,0,0,1.1-.071c.387-.048.75-.1,1.081-.167a3.568,3.568,0,0,0,.713-.19v3.376l-.238-.024V-19a1.7,1.7,0,0,0-.487-1.249,1.769,1.769,0,0,0-1.247-.51h-4.043V-6.643a1.536,1.536,0,0,0,.463,1.059,1.442,1.442,0,0,0,1.058.44h.311v.238Zm-126.741,0h-3.972v-.238h.309a1.442,1.442,0,0,0,1.057-.44,1.527,1.527,0,0,0,.464-1.059V-20.763h-4.042a1.768,1.768,0,0,0-1.247.51,1.7,1.7,0,0,0-.489,1.249v.356l-.238.024V-22a4.38,4.38,0,0,0,.727.19q.485.094,1.083.167a9.386,9.386,0,0,0,1.092.071h8.441a9.381,9.381,0,0,0,1.107-.071q.581-.072,1.08-.167a3.642,3.642,0,0,0,.714-.19v3.376l-.239-.024V-19a1.692,1.692,0,0,0-.487-1.249,1.772,1.772,0,0,0-1.247-.51h-4.043V-6.643a1.533,1.533,0,0,0,.463,1.059,1.446,1.446,0,0,0,1.059.44h.309v.238Zm234.844,0q-.237,0-.737-.035a6.949,6.949,0,0,1-1.092-.18,4.851,4.851,0,0,1-1.191-.462,3.4,3.4,0,0,1-1.046-.892c-.03-.031-.177-.21-.438-.534s-.59-.737-.986-1.236-.813-1.026-1.249-1.581-.852-1.075-1.248-1.558-.84-1.035-1.332-1.653l5.709-7.287a.61.61,0,0,0,.033-.654.716.716,0,0,0-.678-.357h-.237v-.213h5.159v.213h-.1a3.512,3.512,0,0,0-1.462.309,3.4,3.4,0,0,0-.908.6l-5.472,6.367,6.3,7.771a4.411,4.411,0,0,0,1.046.833,2.789,2.789,0,0,0,1.262.308v.238Zm-10.15,0h-3.971v-.238h.308a1.444,1.444,0,0,0,1.058-.439A1.528,1.528,0,0,0-4417-6.643V-19.814a1.525,1.525,0,0,0-.463-1.058,1.445,1.445,0,0,0-1.058-.44h-.308v-.238h5.873v.238h-.312a1.439,1.439,0,0,0-1.057.44,1.535,1.535,0,0,0-.464,1.058V-6.643a1.538,1.538,0,0,0,.464,1.059,1.438,1.438,0,0,0,1.057.439h.312v.238Zm-55.062,0h-3.828l.024-.238h.285a1.48,1.48,0,0,0,1.069-.439,1.423,1.423,0,0,0,.453-1.059V-19.814a1.42,1.42,0,0,0-.453-1.058,1.481,1.481,0,0,0-1.069-.44h-.285l-.024-.238h5.445a8.035,8.035,0,0,1,2.913.477,4.1,4.1,0,0,1,1.879,1.366,3.546,3.546,0,0,1,.654,2.151,3.816,3.816,0,0,1-.394,1.8,3.3,3.3,0,0,1-1.009,1.189,3.778,3.778,0,0,1-1.309.607,5.138,5.138,0,0,1,2.175.784,4.189,4.189,0,0,1,1.438,1.569,4.649,4.649,0,0,1,.5,2.187,4.143,4.143,0,0,1-.7,2.4,4.412,4.412,0,0,1-2.033,1.569,8.356,8.356,0,0,1-3.186.546Zm2.139-.927a4.455,4.455,0,0,0,2.034-.427,2.943,2.943,0,0,0,1.295-1.283,4.443,4.443,0,0,0,.451-2.093,4.093,4.093,0,0,0-.451-2.035,3.377,3.377,0,0,0-1.166-1.234,4.843,4.843,0,0,0-1.581-.618,8.434,8.434,0,0,0-1.7-.18v-.213a5.165,5.165,0,0,0,1.166-.142,3.74,3.74,0,0,0,1.177-.5,2.574,2.574,0,0,0,.9-1.033,3.844,3.844,0,0,0,.346-1.746,4.09,4.09,0,0,0-.382-1.867,2.451,2.451,0,0,0-1.13-1.117,4.075,4.075,0,0,0-1.817-.369h-1.071V-5.834Zm-18.9.927v-.238h.213a1.091,1.091,0,0,0,.833-.392,1,1,0,0,0,.071-1.106h.007l-1.4-3.661h-6.128l-1.547,3.876a1.058,1.058,0,0,0,.013.594.982.982,0,0,0,.393.511,1.017,1.017,0,0,0,.558.178h.214v.238h-4.874v-.238h.214a2.221,2.221,0,0,0,1.13-.344,2.357,2.357,0,0,0,.817-.875l5.518-12.9c.015-.034.076-.156.178-.37s.215-.471.333-.773.227-.594.32-.879a2.257,2.257,0,0,0,.145-.642h.212l6.734,15.572a2.35,2.35,0,0,0,.814.869,2.221,2.221,0,0,0,1.13.344h.191v.238ZM-4482.167-5.048Zm-5.106-6.063-2.692-7.025-2.805,7.025Zm-13.8,6.2h-3.97v-.238h.31a1.445,1.445,0,0,0,1.058-.439,1.531,1.531,0,0,0,.464-1.059V-19.814a1.528,1.528,0,0,0-.464-1.058,1.446,1.446,0,0,0-1.058-.44h-.31v-.238h5.873v.238h-.308a1.442,1.442,0,0,0-1.058.44,1.513,1.513,0,0,0-.463,1.058V-6.643a1.516,1.516,0,0,0,.463,1.059,1.441,1.441,0,0,0,1.058.439h.308v.238Zm-46.216,0v-.238h.213a1.09,1.09,0,0,0,.832-.392,1,1,0,0,0,.071-1.106h.006l-1.4-3.661h-6.129l-1.544,3.867a1.073,1.073,0,0,0,.01.6.989.989,0,0,0,.4.511,1.01,1.01,0,0,0,.557.178h.212v.238h-5.061a6.238,6.238,0,0,1-2.022-.3,5.012,5.012,0,0,1-1.523-.806,6.341,6.341,0,0,1-1.092-1.107c-.063-.11-.195-.316-.393-.618s-.42-.644-.666-1.033-.486-.773-.723-1.154-.446-.709-.621-.987-.282-.455-.33-.534a5.57,5.57,0,0,0-.9-1.107,1.688,1.688,0,0,0-1.1-.486v-.238l.345.013c.216.007.462,0,.75-.013a5.838,5.838,0,0,0,1.317-.213,2.992,2.992,0,0,0,1.284-.737,3.339,3.339,0,0,0,.869-1.617,3.117,3.117,0,0,0,.1-.595,4.2,4.2,0,0,0,.013-.737,3.847,3.847,0,0,0-.82-2.554,2.765,2.765,0,0,0-2.079-.963,10.75,10.75,0,0,0-1.143-.035c-.4.008-.737.013-1.022.013h-.4V-6.643a1.423,1.423,0,0,0,.453,1.059,1.479,1.479,0,0,0,1.071.439h.285v.238h-5.85v-.238h.309a1.443,1.443,0,0,0,1.059-.439,1.541,1.541,0,0,0,.463-1.059V-19.814a1.538,1.538,0,0,0-.463-1.058,1.445,1.445,0,0,0-1.059-.44h-.309v-.238h6.99a6.762,6.762,0,0,1,2,.286,4.439,4.439,0,0,1,1.582.843,4.016,4.016,0,0,1,1.035,1.393,4.669,4.669,0,0,1,.379,1.948,4.854,4.854,0,0,1-.5,2.129,4.545,4.545,0,0,1-1.392,1.7,3.649,3.649,0,0,1-2.1.713,2.85,2.85,0,0,1,1.046.738,10.611,10.611,0,0,1,.9,1.068,4.268,4.268,0,0,0,.3.451c.2.287.448.638.75,1.058s.6.837.913,1.248.583.755.821,1.023a7.668,7.668,0,0,0,.941.963,3.839,3.839,0,0,0,1,.618,2.718,2.718,0,0,0,.465.148,2.6,2.6,0,0,0,.6-.267,2.349,2.349,0,0,0,.82-.877l5.517-12.9c.015-.034.074-.156.177-.37s.215-.471.335-.773.225-.594.319-.879a2.272,2.272,0,0,0,.143-.642h.214l6.727,15.56a2.343,2.343,0,0,0,.821.881,2.216,2.216,0,0,0,1.129.344h.191v.238ZM-4542.771-5.048Zm-5.105-6.063-2.691-7.025-2.806,7.025Zm-57.708,6.2h-6.49v-.237h.309a1.448,1.448,0,0,0,1.059-.44,1.535,1.535,0,0,0,.462-1.059V-19.814a1.419,1.419,0,0,0-.452-1.058,1.483,1.483,0,0,0-1.069-.44h-.285l-.024-.238h7.608a9.051,9.051,0,0,0,1.1-.071c.389-.048.749-.1,1.082-.167a3.5,3.5,0,0,0,.714-.19V-18.6h-.238v-.38a1.7,1.7,0,0,0-.487-1.236,1.7,1.7,0,0,0-.974-.5h-4.767v7.2h3.732a1.422,1.422,0,0,0,1.022-.45,1.437,1.437,0,0,0,.4-1.023v-.286h.237v4.327h-.237v-.309a1.434,1.434,0,0,0-.4-1.022,1.347,1.347,0,0,0-1.022-.429h-3.732v6.968h3.306a4.6,4.6,0,0,0,2.067-.418,3.731,3.731,0,0,0,1.38-1.177,7.678,7.678,0,0,0,.926-1.759h.238l-1.284,4.184Zm-10.961,0h-3.97v-.238h.309a1.479,1.479,0,0,0,1.071-.439,1.429,1.429,0,0,0,.454-1.059v-6.11h-9.06v6.11a1.526,1.526,0,0,0,.463,1.059,1.441,1.441,0,0,0,1.058.439h.31v.238h-5.872v-.238h.307a1.445,1.445,0,0,0,1.059-.439,1.542,1.542,0,0,0,.464-1.059V-19.814a1.54,1.54,0,0,0-.464-1.058,1.446,1.446,0,0,0-1.059-.44h-.307v-.238h5.872v.238h-.31a1.442,1.442,0,0,0-1.058.44,1.523,1.523,0,0,0-.463,1.058v6.253h9.06v-6.253a1.427,1.427,0,0,0-.454-1.058,1.48,1.48,0,0,0-1.071-.44h-.309v-.238h5.874v.238h-.309a1.446,1.446,0,0,0-1.059.44,1.526,1.526,0,0,0-.462,1.058V-6.643a1.529,1.529,0,0,0,.462,1.059,1.445,1.445,0,0,0,1.059.439h.309v.238Z" transform="translate(4714.972 22)" fill="#2560b7" stroke="rgba(0,0,0,0)" stroke-width="1"/>
      </g>
      <g id="Group_49333" data-name="Group 49333" transform="translate(67.258 23.314)">
        <path id="Union_3" data-name="Union 3" d="M-4573.462-28.889l-4.772-11.412-3.485,8.928a11.5,11.5,0,0,0-.392,1.33,6.778,6.778,0,0,0-.146,1.154h-.2l-5.242-14.427a2,2,0,0,0-.865-1.046,2.265,2.265,0,0,0-1.1-.324h-.179v-.224h6.2v.224h-.2a.989.989,0,0,0-.749.359.957.957,0,0,0-.08,1.028h-.038l2.955,8.742,4.11-10.711h.2l.005.035,4.451,10.664,2.486-8.73h0a1.122,1.122,0,0,0-.111-1.028.92.92,0,0,0-.738-.359h-.2v-.224h4.609v.224h-.179a2.392,2.392,0,0,0-1.12.324,1.745,1.745,0,0,0-.8.935l-3.782,12.054a14.1,14.1,0,0,0-.326,1.376,6.447,6.447,0,0,0-.1,1.108Zm21.081-.189a7.046,7.046,0,0,1-1.578-.45,3.48,3.48,0,0,1-1.139-.725,3.344,3.344,0,0,1-.113-1.085,6.8,6.8,0,0,1,.179-1.322,5.632,5.632,0,0,1,.38-1.151h.2a3.838,3.838,0,0,0,.378,2.068,3.453,3.453,0,0,0,1.377,1.457,4.029,4.029,0,0,0,2.136.5,3.426,3.426,0,0,0,2.228-.785,2.416,2.416,0,0,0,.838-1.9,2.188,2.188,0,0,0-.358-1.22,3.261,3.261,0,0,0-1.117-1l-4.052-3.066a3.882,3.882,0,0,1-1.466-1.623,4.032,4.032,0,0,1-.367-1.981,4.19,4.19,0,0,1,.6-1.956,3.788,3.788,0,0,1,1.511-1.4,4.938,4.938,0,0,1,2.337-.515c.285,0,.62.015,1.008.045s.78.071,1.175.123l.409.056h1.324l-.022.47h-.013l-.166,2.641h-.225a2.221,2.221,0,0,0-.816-1.813,3.213,3.213,0,0,0-2.112-.672,3.041,3.041,0,0,0-2.072.672,2.153,2.153,0,0,0-.793,1.633,1.626,1.626,0,0,0,.323,1.086,4.128,4.128,0,0,0,1,.971l4.318,3.2a3.754,3.754,0,0,1,1.343,1.466,3.921,3.921,0,0,1,.38,1.937,4.252,4.252,0,0,1-1.488,3.266,5.767,5.767,0,0,1-3.86,1.207A10.261,10.261,0,0,1-4552.381-29.078Zm-61.461-.851a7.151,7.151,0,0,1-2.976-2.83,8.546,8.546,0,0,1-1.052-4.319,8.549,8.549,0,0,1,1.052-4.319,7.141,7.141,0,0,1,2.976-2.829,9.7,9.7,0,0,1,4.521-1,9.716,9.716,0,0,1,4.509,1,7.117,7.117,0,0,1,2.987,2.829,8.549,8.549,0,0,1,1.052,4.319,8.546,8.546,0,0,1-1.052,4.319,7.127,7.127,0,0,1-2.987,2.83,9.745,9.745,0,0,1-4.509.994A9.73,9.73,0,0,1-4613.842-29.929Zm1.6-13.549a5.766,5.766,0,0,0-1.925,2.529,10,10,0,0,0-.683,3.871,10,10,0,0,0,.683,3.872,5.752,5.752,0,0,0,1.925,2.526,4.854,4.854,0,0,0,2.919.9,4.856,4.856,0,0,0,2.92-.9,5.739,5.739,0,0,0,1.924-2.526,10.016,10.016,0,0,0,.683-3.872,10.014,10.014,0,0,0-.683-3.871,5.753,5.753,0,0,0-1.924-2.529,4.856,4.856,0,0,0-2.92-.9A4.853,4.853,0,0,0-4612.241-43.478Zm133.72,14.23h-4.387v-.224h.292a1.357,1.357,0,0,0,1-.414,1.45,1.45,0,0,0,.438-1v-12.4a1.335,1.335,0,0,0-.427-1,1.391,1.391,0,0,0-1.007-.414h-.269l-.022-.224h6.917a6.807,6.807,0,0,1,2.918.548,3.934,3.934,0,0,1,1.735,1.51,4.393,4.393,0,0,1,.6,2.238,4.489,4.489,0,0,1-.392,2.013,4.218,4.218,0,0,1-1.14,1.5,4.707,4.707,0,0,1-1.633.884,4.508,4.508,0,0,1-1.892.157,4.774,4.774,0,0,1-1.9-.683v-.224a4.717,4.717,0,0,0,1.1-.034,4.377,4.377,0,0,0,1.041-.312,2.953,2.953,0,0,0,1.02-.761,3.519,3.519,0,0,0,.714-1.4,3.221,3.221,0,0,0,.123-.65,4.238,4.238,0,0,0,.011-.693,3.577,3.577,0,0,0-.783-2.361,2.686,2.686,0,0,0-2.148-.884h-1.834v13.18a1.437,1.437,0,0,0,.436,1,1.361,1.361,0,0,0,1,.414h.29v.224Zm-19.244,0h-4.385v-.224h.29a1.357,1.357,0,0,0,1-.414,1.445,1.445,0,0,0,.437-1v-12.4a1.44,1.44,0,0,0-.437-1,1.357,1.357,0,0,0-1-.414h-.29v-.224h6.176v.224h-.291a1.362,1.362,0,0,0-1,.414,1.439,1.439,0,0,0-.437,1v12.4a1.444,1.444,0,0,0,.437,1,1.362,1.362,0,0,0,1,.414h.291v.224Zm-19.432,0h-4.386v-.224h.291a1.392,1.392,0,0,0,1.007-.414,1.338,1.338,0,0,0,.426-1V-36.61h-7.876v5.728a1.437,1.437,0,0,0,.436,1,1.361,1.361,0,0,0,1,.414h.291v.224h-6.175v-.224h.291a1.357,1.357,0,0,0,1-.414,1.445,1.445,0,0,0,.438-1v-12.4a1.44,1.44,0,0,0-.437-1,1.357,1.357,0,0,0-1-.414h-.291v-.224h6.175v.224h-.291a1.361,1.361,0,0,0-1,.414,1.432,1.432,0,0,0-.436,1v5.818h7.876v-5.818a1.334,1.334,0,0,0-.426-1,1.392,1.392,0,0,0-1.007-.414h-.291v-.224h6.175v.224h-.291a1.361,1.361,0,0,0-1,.414,1.432,1.432,0,0,0-.436,1v12.4a1.437,1.437,0,0,0,.436,1,1.361,1.361,0,0,0,1,.414h.291v.224Zm-118.361,0h-6.646v-.224h.291a1.356,1.356,0,0,0,1-.414,1.442,1.442,0,0,0,.437-1v-12.4a1.437,1.437,0,0,0-.437-1,1.356,1.356,0,0,0-1-.414h-.291v-.224h6.177v.224h-.291a1.358,1.358,0,0,0-1,.414,1.427,1.427,0,0,0-.437,1v13.157h3a4.353,4.353,0,0,0,1.968-.414,3.774,3.774,0,0,0,1.389-1.186,7.085,7.085,0,0,0,.917-1.779h.224l-1.12,4.252ZM-4631.441-29.248Zm-28.327,0h-6.646v-.224h.29a1.358,1.358,0,0,0,1-.414,1.439,1.439,0,0,0,.437-1h0v-12.4h0a1.434,1.434,0,0,0-.437-1,1.358,1.358,0,0,0-1-.414h-.29v-.224h6.176v.224h-.291a1.36,1.36,0,0,0-1,.414,1.427,1.427,0,0,0-.434,1v13.157h3a4.358,4.358,0,0,0,1.969-.414,3.767,3.767,0,0,0,1.388-1.186,7,7,0,0,0,.916-1.779h.225l-1.12,4.252ZM-4655.652-29.248Zm-28.843,0h-6.646v-.224h.291a1.361,1.361,0,0,0,1-.414,1.443,1.443,0,0,0,.436-1v-12.4a1.438,1.438,0,0,0-.436-1,1.361,1.361,0,0,0-1-.414h-.291v-.224h7.852a8.544,8.544,0,0,0,1.042-.067c.366-.045.7-.1,1.019-.156a3.31,3.31,0,0,0,.669-.18v3.536h-.224v-.314a1.917,1.917,0,0,0-.537-1.4,1.9,1.9,0,0,0-1.142-.548h-4.228v6.645h3.222a1.66,1.66,0,0,0,1.163-.492,1.575,1.575,0,0,0,.47-1.163v-.224h.224v4.609h-.224v-.246a1.575,1.575,0,0,0-.47-1.163,1.588,1.588,0,0,0-1.163-.47h-3.222v6.422h3a4.357,4.357,0,0,0,1.968-.414,3.751,3.751,0,0,0,1.387-1.186,6.961,6.961,0,0,0,.918-1.779h.225l-1.119,4.252ZM-4680.379-29.248Zm-30.207,0h-4.386v-.224h.292a1.36,1.36,0,0,0,1-.414,1.442,1.442,0,0,0,.435-1v-12.4a1.437,1.437,0,0,0-.435-1,1.36,1.36,0,0,0-1-.414h-.292v-.224h7.854a8.539,8.539,0,0,0,1.04-.067c.367-.045.705-.1,1.02-.156a3.31,3.31,0,0,0,.669-.18v3.38h-.225v-.291a1.761,1.761,0,0,0-.5-1.309,1.8,1.8,0,0,0-1.331-.5h-4.073v6.645h3.222a1.661,1.661,0,0,0,1.165-.492,1.579,1.579,0,0,0,.47-1.163v-.224h.224v4.609h-.224v-.246a1.579,1.579,0,0,0-.47-1.163,1.589,1.589,0,0,0-1.165-.47h-3.222v5.661a1.435,1.435,0,0,0,.438,1,1.357,1.357,0,0,0,1,.414h.292v.224Z" transform="translate(4714.971 45.314)" fill="#2560b7" stroke="rgba(0,0,0,0)" stroke-width="1"/>
      </g>
    </g>
  </g>
</svg>
