<svg xmlns="http://www.w3.org/2000/svg" width="21.48" height="21.5" viewBox="0 0 21.48 21.5">
  <g id="Group_43381" data-name="Group 43381" transform="translate(-563.429 -99.75)">
    <path id="Path_80237" data-name="Path 80237" d="M573.566,100h1.228c.277.033.554.061.829.1a10.495,10.495,0,0,1,8.875,8.593c.069.395.108.794.161,1.192v1.23c-.013.072-.028.144-.037.217-.05.379-.079.761-.15,1.136a10.49,10.49,0,0,1-8.486,8.37c-.395.068-.795.109-1.192.162h-1.228c-.059-.012-.119-.026-.178-.035-.572-.089-1.153-.137-1.714-.271a10.51,10.51,0,0,1-7.79-12.159,10.322,10.322,0,0,1,2.843-5.41,10.215,10.215,0,0,1,5.646-2.962C572.768,100.094,573.168,100.053,573.566,100Zm-1.857,11.53a4.418,4.418,0,0,1-1.913-3.3,4.219,4.219,0,0,1,1.325-3.538,4.4,4.4,0,0,1,6.222.085,4.469,4.469,0,0,1-.669,6.742,7.305,7.305,0,0,1,4.5,5.017,9.247,9.247,0,1,0-13.972,0,7.179,7.179,0,0,1,1.622-3.046A7.291,7.291,0,0,1,571.709,111.53Zm2.634,8.24c.218-.018.613-.037,1.005-.085a9.054,9.054,0,0,0,4.668-2.01.238.238,0,0,0,.072-.184,5.96,5.96,0,0,0-11.812-.007.278.278,0,0,0,.094.212A9.329,9.329,0,0,0,574.343,119.77Zm-.159-8.72A3.187,3.187,0,1,0,571,107.88,3.194,3.194,0,0,0,574.184,111.051Z" fill="#2560b7" stroke="#2560b7" stroke-width="0.5"/>
  </g>
</svg>
